<?xml version="1.0" encoding="iso-8859-1"?>
<!-- Uploaded to: SVG Repo, www.svgrepo.com, Generator: SVG Repo Mixer Tools -->
<!DOCTYPE svg PUBLIC "-//W3C//DTD SVG 1.1//EN" "http://www.w3.org/Graphics/SVG/1.1/DTD/svg11.dtd">
<svg fill="#000000" height="800px" width="800px" version="1.1" id="Capa_1" xmlns="http://www.w3.org/2000/svg" xmlns:xlink="http://www.w3.org/1999/xlink" 
	 viewBox="0 0 349.667 349.667" xml:space="preserve">
<g>
	<path d="M174.834,197.204c24.125,0,80.846-29.034,80.846-98.603c0-9.703-0.237-19.076-1.036-27.933
		c-1.313-17.433-4.884-32.883-13.775-44.724C229.468,9.836,209.52,0,174.834,0c-34.688,0-54.637,9.837-66.038,25.948
		c-8.885,11.834-12.456,27.273-13.77,44.694c-0.802,8.865-1.039,18.247-1.039,27.96C93.987,168.17,150.709,197.204,174.834,197.204z
		 M201.223,36.123c-2.355,5.951-3.534,8.927-5.89,14.877c-15.209-4.297-25.791-4.297-41,0c-2.356-5.95-3.534-8.926-5.89-14.877
		C167.462,30.365,182.205,30.366,201.223,36.123z M106.015,83.514c0.929,2.034,4.886,9.872,11.014,10.607
		c7.04,0.845,18.727-24.935,57.804-24.998c39.077,0.063,50.764,25.843,57.804,24.998c6.127-0.735,10.085-8.574,11.014-10.607
		c0.19,4.994,0.26,10.048,0.26,15.088c0,34.005-15.016,55.075-27.612,66.762c-15.872,14.727-33.494,20.072-41.466,20.072
		c-7.972,0-25.594-5.345-41.466-20.072c-12.597-11.687-27.612-32.757-27.612-66.762C105.755,93.562,105.825,88.507,106.015,83.514z"
		/>
	<path d="M324.926,298.327c-4.128-25.665-12.624-58.724-29.667-70.472c-11.638-8.024-52.243-29.718-69.582-38.982l-0.3-0.16
		c-1.982-1.059-4.403-0.847-6.17,0.541c-9.083,7.131-19.033,11.937-29.573,14.284c-1.861,0.415-3.391,1.738-4.067,3.521
		l-10.732,28.291l-10.733-28.291c-0.677-1.783-2.205-3.106-4.067-3.521c-10.54-2.347-20.49-7.153-29.573-14.284
		c-1.769-1.388-4.188-1.601-6.17-0.541c-17.134,9.155-58.235,31.291-69.831,39.107c-19.619,13.217-28.198,61.052-29.719,70.507
		c-0.15,0.938-0.063,1.897,0.254,2.792c0.702,1.982,18.708,48.548,149.839,48.548c131.131,0,149.137-46.566,149.839-48.548
		C324.989,300.224,325.077,299.264,324.926,298.327z M255.649,277.337l-12.655,27.928c-0.206,0.452-0.656,0.735-1.142,0.735
		c-0.063,0-0.125-0.004-0.188-0.014c-0.555-0.084-0.986-0.526-1.057-1.083l-2.33-18.468h-5.821c-0.335,0-0.655-0.134-0.892-0.373
		c-0.235-0.236-0.366-0.559-0.362-0.894l0.281-27.927c0.007-0.688,0.566-1.242,1.254-1.242h19.732c0.398,0,0.773,0.19,1.009,0.51
		c0.236,0.319,0.307,0.732,0.19,1.113l-5.515,17.942h6.353c0.427,0,0.824,0.217,1.055,0.575
		C255.793,276.498,255.825,276.949,255.649,277.337z"/>
</g>
</svg>